<svg xmlns="http://www.w3.org/2000/svg" viewBox="0 0 128 128" width="128" height="128">
  <rect width="128" height="128" rx="16" fill="#161b22"/>
  <!-- Large chat bubble -->
  <rect x="16" y="20" width="72" height="52" rx="12" fill="none" stroke="#58a6ff" stroke-width="3.5"/>
  <path d="M24 72 L16 88 L38 72 Z" fill="#58a6ff" opacity="0.7"/>
  <!-- Dots inside bubble -->
  <circle cx="36" cy="46" r="5" fill="#58a6ff" opacity="0.7"/>
  <circle cx="52" cy="46" r="5" fill="#58a6ff" opacity="0.9"/>
  <circle cx="68" cy="46" r="5" fill="#58a6ff" opacity="0.7"/>
  <!-- Small reply bubble -->
  <rect x="56" y="66" width="56" height="36" rx="10" fill="none" stroke="#58a6ff" stroke-width="2.5" opacity="0.7"/>
  <path d="M62 102 L56 114 L72 102 Z" fill="#58a6ff" opacity="0.5"/>
  <!-- Heart inside reply bubble -->
  <path d="M84 78 C84 74 78 72 78 78 C78 72 72 74 72 78 C72 84 84 92 84 92 C84 92 96 84 96 78 C96 74 90 72 90 78 C90 72 84 74 84 78 Z" fill="#58a6ff" opacity="0.8" transform="scale(0.55) translate(68,50)"/>
</svg>
