<svg xmlns="http://www.w3.org/2000/svg" viewBox="0 0 128 128" width="128" height="128">
  <rect width="128" height="128" rx="16" fill="#161b22"/>
  <!-- Chip body -->
  <rect x="38" y="38" width="52" height="52" rx="6" fill="none" stroke="#58a6ff" stroke-width="3.5"/>
  <rect x="48" y="48" width="32" height="32" rx="4" fill="#58a6ff" opacity="0.12"/>
  <!-- Pins -->
  <line x1="50" y1="38" x2="50" y2="26" stroke="#58a6ff" stroke-width="3" stroke-linecap="round"/>
  <line x1="64" y1="38" x2="64" y2="26" stroke="#58a6ff" stroke-width="3" stroke-linecap="round"/>
  <line x1="78" y1="38" x2="78" y2="26" stroke="#58a6ff" stroke-width="3" stroke-linecap="round"/>
  <line x1="50" y1="90" x2="50" y2="102" stroke="#58a6ff" stroke-width="3" stroke-linecap="round"/>
  <line x1="64" y1="90" x2="64" y2="102" stroke="#58a6ff" stroke-width="3" stroke-linecap="round"/>
  <line x1="78" y1="90" x2="78" y2="102" stroke="#58a6ff" stroke-width="3" stroke-linecap="round"/>
  <line x1="38" y1="50" x2="26" y2="50" stroke="#58a6ff" stroke-width="3" stroke-linecap="round"/>
  <line x1="38" y1="64" x2="26" y2="64" stroke="#58a6ff" stroke-width="3" stroke-linecap="round"/>
  <line x1="38" y1="78" x2="26" y2="78" stroke="#58a6ff" stroke-width="3" stroke-linecap="round"/>
  <line x1="90" y1="50" x2="102" y2="50" stroke="#58a6ff" stroke-width="3" stroke-linecap="round"/>
  <line x1="90" y1="64" x2="102" y2="64" stroke="#58a6ff" stroke-width="3" stroke-linecap="round"/>
  <line x1="90" y1="78" x2="102" y2="78" stroke="#58a6ff" stroke-width="3" stroke-linecap="round"/>
  <!-- Code brackets inside chip -->
  <text x="64" y="70" fill="#58a6ff" font-family="monospace" font-size="14" font-weight="700" text-anchor="middle" opacity="0.9">&lt;/&gt;</text>
</svg>
