<svg xmlns="http://www.w3.org/2000/svg" viewBox="0 0 128 128" width="128" height="128">
  <rect width="128" height="128" rx="16" fill="#161b22"/>
  <path d="M64 20 L70 44 L94 36 L78 56 L102 62 L78 68 L94 88 L70 80 L64 104 L58 80 L34 88 L50 68 L26 62 L50 56 L34 36 L58 44 Z" fill="none" stroke="#58a6ff" stroke-width="3.5" stroke-linejoin="round"/>
  <path d="M64 30 L68 48 L86 42 L74 58 L92 64 L74 70 L86 86 L68 80 L64 98 L60 80 L42 86 L54 70 L36 64 L54 58 L42 42 L60 48 Z" fill="#58a6ff" opacity="0.2"/>
  <text x="64" y="118" fill="#8b949e" font-family="Inter,sans-serif" font-size="9" font-weight="500" text-anchor="middle" letter-spacing="1">FANATICAL</text>
</svg>
