<svg xmlns="http://www.w3.org/2000/svg" viewBox="0 0 128 128" width="128" height="128">
  <rect width="128" height="128" rx="16" fill="#161b22"/>
  <!-- AI: neural network nodes -->
  <circle cx="30" cy="40" r="7" fill="#58a6ff" opacity="0.7"/>
  <circle cx="30" cy="64" r="7" fill="#58a6ff" opacity="0.7"/>
  <circle cx="30" cy="88" r="7" fill="#58a6ff" opacity="0.7"/>
  <circle cx="64" cy="28" r="7" fill="#58a6ff"/>
  <circle cx="64" cy="64" r="9" fill="#58a6ff"/>
  <circle cx="64" cy="100" r="7" fill="#58a6ff"/>
  <circle cx="98" cy="40" r="7" fill="#58a6ff" opacity="0.7"/>
  <circle cx="98" cy="64" r="7" fill="#58a6ff" opacity="0.7"/>
  <circle cx="98" cy="88" r="7" fill="#58a6ff" opacity="0.7"/>
  <!-- connections -->
  <line x1="37" y1="40" x2="57" y2="30" stroke="#58a6ff" stroke-width="1.5" opacity="0.4"/>
  <line x1="37" y1="40" x2="57" y2="62" stroke="#58a6ff" stroke-width="1.5" opacity="0.4"/>
  <line x1="37" y1="64" x2="57" y2="62" stroke="#58a6ff" stroke-width="1.5" opacity="0.4"/>
  <line x1="37" y1="88" x2="57" y2="62" stroke="#58a6ff" stroke-width="1.5" opacity="0.4"/>
  <line x1="37" y1="88" x2="57" y2="98" stroke="#58a6ff" stroke-width="1.5" opacity="0.4"/>
  <line x1="71" y1="30" x2="91" y2="40" stroke="#58a6ff" stroke-width="1.5" opacity="0.4"/>
  <line x1="71" y1="62" x2="91" y2="40" stroke="#58a6ff" stroke-width="1.5" opacity="0.4"/>
  <line x1="71" y1="62" x2="91" y2="64" stroke="#58a6ff" stroke-width="1.5" opacity="0.4"/>
  <line x1="71" y1="62" x2="91" y2="88" stroke="#58a6ff" stroke-width="1.5" opacity="0.4"/>
  <line x1="71" y1="98" x2="91" y2="88" stroke="#58a6ff" stroke-width="1.5" opacity="0.4"/>
  <text x="64" y="120" fill="#8b949e" font-family="Inter,sans-serif" font-size="8" font-weight="500" text-anchor="middle" letter-spacing="1">AI</text>
</svg>
